<svg xmlns="http://www.w3.org/2000/svg" width="603" height="217" viewBox="0 0 603 217" fill="none"><g clip-path="url(#clip0_250_607)"><path d="M96.7188 82.19V34.64C96.7188 27.04 102.229 20.71 109.469 19.43V82.19H96.7188Z" fill="black"></path><path d="M109.469 0.209991H96.7188V12.85H109.469V0.209991Z" fill="black"></path><path d="M402.461 19.19H389.711V82.18H402.461V19.19Z" fill="black"></path><path d="M453.47 82.18V31.92L402.02 32.47C403.31 25.04 409.75 19.2 417.23 19.2H450.99C459.39 19.33 466.22 26.25 466.23 34.65V82.19H453.48L453.47 82.18Z" fill="black"></path><path d="M219.758 82.19L218.918 82.17C210.498 81.94 203.898 75.16 203.898 66.74V34.65C203.898 26.23 210.498 19.46 218.918 19.23L219.838 19.2H286.488V31.95H236.988C219.948 32.64 216.648 26.18 216.648 26.18V69.42H243.518H286.488V82.17H219.768L219.758 82.19Z" fill="black"></path><path d="M136.998 82.3H136.598C128.218 82.16 121.398 75.23 121.398 66.85V0H134.148V74.67C134.148 74.67 136.918 68.82 146.878 69.49H169.968V82.29H136.998V82.3Z" fill="black"></path><path d="M312.399 82.23L311.559 82.21C303.139 81.98 296.539 75.2 296.539 66.78V34.68C296.539 26.26 303.139 19.49 311.559 19.25L312.429 19.23H363.239L364.109 19.25C372.529 19.48 379.129 26.26 379.129 34.68V66.78C379.129 75.3 372.199 82.23 363.679 82.23H312.399ZM342.419 69.48H366.379V26.22C366.379 26.22 363.779 32.58 346.039 31.98H309.289V69.42H339.719L342.419 69.47V69.48Z" fill="black"></path><path d="M0 82.23V69.48H73.52V47.62H15.23C6.83 47.49 0 40.57 0 32.17V15.7C0 7.3 6.83 0.38 15.24 0.26H16.13L86.28 0.25V13H33.35C16.33 13.61 12.76 5.93 12.76 5.93V34.86H70.83C79.35 34.86 86.28 41.79 86.28 50.31V66.78C86.28 75.18 79.45 82.1 71.04 82.22H70.1L0 82.23Z" fill="black"></path><path d="M127.238 177.31V164.51H197.318V152.18H144.938V152.15L142.308 152.08C133.858 151.85 127.238 145.05 127.238 136.6V129.61C127.238 121.21 134.068 114.27 142.468 114.12C143.598 114.12 197.328 114.11 210.118 114.11V126.91H160.648C141.358 127.67 140.038 120.18 140.038 120.18V139.4H193.938L195.068 139.46C203.508 139.7 210.118 146.5 210.118 154.94V161.79C210.118 170.28 203.208 177.23 194.718 177.29L192.028 177.31V177.34H127.238V177.31Z" fill="black"></path><path d="M440.941 177.22C432.901 176.66 426.531 169.93 426.531 161.75V129.55C426.531 121.1 433.151 114.3 441.601 114.07L442.521 114.04H493.901C502.451 114.04 509.401 120.99 509.401 129.54V136.61C509.401 145.16 502.451 152.11 493.901 152.11H439.321V164.49H458.441C458.941 164.43 459.431 164.41 459.921 164.41H518.411V177.21H440.931L440.941 177.22ZM439.331 121.06V139.33H496.621V126.85H459.741C440.991 127.4 439.331 121.06 439.331 121.06Z" fill="black"></path><path d="M179.941 82.19V34.64C179.941 27.04 185.451 20.71 192.691 19.43V82.19H179.941Z" fill="black"></path><path d="M192.691 0.209991H179.941V12.85H192.691V0.209991Z" fill="black"></path><path d="M77.12 94.99L49.76 144.88C47.24 149.71 45.86 155.04 45.67 160.47C45.65 160.47 45.62 160.47 45.6 160.47C45.42 155.04 44.03 149.71 41.51 144.87L14.15 94.98L0 95.02V177.29H12.8V117.36C12.8 117.36 21.75 132.59 25.69 139.51L45.64 174.53L65.59 139.51C69.53 132.6 78.48 118.72 78.48 118.72V177.3H91.28V95.03L77.13 94.99H77.12Z" fill="black"></path><path d="M102.852 177.28V129.57C102.852 121.94 108.382 115.59 115.652 114.3V177.28H102.852Z" fill="black"></path><path d="M115.652 95.01H102.852V107.69H115.652V95.01Z" fill="black"></path><path d="M221.121 177.28V129.57C221.121 121.94 226.651 115.59 233.921 114.3V177.28H221.121Z" fill="black"></path><path d="M233.921 95.01H221.121V107.69H233.921V95.01Z" fill="black"></path><path d="M261.629 177.4L260.789 177.38C252.339 177.15 245.719 170.35 245.719 161.9V129.69C245.719 121.24 252.339 114.44 260.789 114.21L261.659 114.19H312.649L313.519 114.21C321.969 114.44 328.589 121.24 328.589 129.69V161.9C328.589 170.45 321.639 177.4 313.089 177.4H261.629ZM291.749 164.61H315.789V121.2C315.789 121.2 313.179 127.59 295.379 126.99H258.499V164.57H289.039L291.749 164.62V164.61Z" fill="black"></path><path d="M352.562 114.19H339.762V177.4H352.562V114.19Z" fill="black"></path><path d="M403.761 177.4V126.95L352.121 127.5C353.421 120.05 359.881 114.18 367.391 114.18H401.271C409.701 114.31 416.561 121.26 416.561 129.68V177.39H403.761V177.4Z" fill="black"></path><path d="M533.229 177.31V164.51H589.779V152.18H537.399V152.15L534.769 152.08C526.319 151.85 519.699 145.05 519.699 136.6V129.61C519.699 121.21 526.529 114.27 534.929 114.12C536.059 114.12 589.789 114.11 602.579 114.11V126.91H553.109C533.819 127.67 532.499 120.18 532.499 120.18V139.4H586.399L587.529 139.46C595.969 139.7 602.579 146.5 602.579 154.94V161.79C602.579 170.28 595.669 177.23 587.179 177.29L584.489 177.31V177.34H533.229V177.31Z" fill="black"></path><path d="M22.1 190.48V216.39H20.54L2.88 193.88V216.39H1V190.48H2.59L20.21 212.99V190.48H22.1Z" fill="black"></path><path d="M47.0814 197.07V216.39H45.3014V212.24C44.0414 214.94 41.4114 216.53 38.0114 216.53C33.0914 216.53 29.9414 213.75 29.9414 208.35V197.06H31.7914V208.2C31.7914 212.57 34.1214 214.86 38.1614 214.86C42.5314 214.86 45.2314 211.94 45.2314 207.35V197.06H47.0814V197.07Z" fill="black"></path><path d="M70.8814 207.17H54.2614C54.4514 211.76 57.8114 214.87 62.4414 214.87C64.8814 214.87 67.1414 213.98 68.6214 212.17L69.6914 213.39C67.9914 215.46 65.3214 216.54 62.4014 216.54C56.5514 216.54 52.4414 212.47 52.4414 206.73C52.4414 200.99 56.4014 196.92 61.6914 196.92C66.9814 196.92 70.9114 200.92 70.9114 206.66C70.9114 206.81 70.8714 206.99 70.8714 207.18L70.8814 207.17ZM54.3014 205.73H69.1114C68.8514 201.55 65.8214 198.55 61.7114 198.55C57.6014 198.55 54.6014 201.51 54.3114 205.73H54.3014Z" fill="black"></path><path d="M73.4297 214.06L74.2797 212.58C75.7597 213.84 78.3897 214.91 81.2397 214.91C85.3097 214.91 86.9397 213.47 86.9397 211.28C86.9397 205.65 74.1297 209.8 74.1297 202.21C74.1297 199.29 76.5697 196.92 81.4597 196.92C83.8997 196.92 86.5697 197.66 88.0897 198.81L87.2397 200.29C85.6097 199.11 83.4997 198.55 81.4297 198.55C77.6497 198.55 75.9897 200.1 75.9897 202.18C75.9897 207.99 88.7997 203.88 88.7997 211.25C88.7997 214.4 86.0997 216.54 81.1697 216.54C77.9897 216.54 74.9497 215.47 73.4297 214.06Z" fill="black"></path><path d="M103.192 215.17C102.232 216.1 100.672 216.54 99.2319 216.54C95.8219 216.54 93.9719 214.54 93.9719 211.28V198.66H90.4219V197.07H93.9719V192.85H95.8219V197.07H101.972V198.66H95.8219V211.1C95.8219 213.58 97.0419 214.95 99.4119 214.95C100.562 214.95 101.632 214.58 102.412 213.88L103.192 215.18V215.17Z" fill="black"></path><path d="M117.109 196.92V198.73C116.959 198.73 116.809 198.69 116.669 198.69C112.379 198.69 109.819 201.54 109.819 206.32V216.39H107.969V197.07H109.749V201.29C110.929 198.48 113.489 196.92 117.119 196.92H117.109Z" fill="black"></path><path d="M135.802 204.14V216.39H134.022V212.95C132.802 215.17 130.432 216.54 127.062 216.54C122.732 216.54 120.102 214.32 120.102 211.02C120.102 208.1 121.952 205.62 127.322 205.62H133.952V204.07C133.952 200.48 131.992 198.55 128.212 198.55C125.552 198.55 123.142 199.55 121.552 200.99L120.622 199.66C122.552 197.96 125.362 196.92 128.362 196.92C133.142 196.92 135.802 199.36 135.802 204.14ZM133.952 210.69V207.06H127.362C123.362 207.06 121.962 208.73 121.962 210.95C121.962 213.47 123.922 215.02 127.332 215.02C130.742 215.02 132.852 213.47 133.962 210.69H133.952Z" fill="black"></path><path d="M169.489 205.1V216.39H167.639V205.25C167.639 200.88 165.309 198.59 161.379 198.59C156.829 198.59 154.049 201.51 154.049 206.1V216.39H152.199V197.07H153.979V201.25C155.279 198.55 157.979 196.92 161.639 196.92C166.339 196.92 169.489 199.7 169.489 205.1Z" fill="black"></path><path d="M190.688 204.14V216.39H188.908V212.95C187.688 215.17 185.318 216.54 181.948 216.54C177.618 216.54 174.988 214.32 174.988 211.02C174.988 208.1 176.838 205.62 182.208 205.62H188.838V204.07C188.838 200.48 186.878 198.55 183.098 198.55C180.438 198.55 178.028 199.55 176.438 200.99L175.508 199.66C177.438 197.96 180.248 196.92 183.248 196.92C188.028 196.92 190.688 199.36 190.688 204.14ZM188.838 210.69V207.06H182.248C178.248 207.06 176.848 208.73 176.848 210.95C176.848 213.47 178.808 215.02 182.218 215.02C185.628 215.02 187.738 213.47 188.848 210.69H188.838Z" fill="black"></path><path d="M207.532 215.17C206.572 216.1 205.012 216.54 203.572 216.54C200.162 216.54 198.312 214.54 198.312 211.28V198.66H194.762V197.07H198.312V192.85H200.162V197.07H206.312V198.66H200.162V211.1C200.162 213.58 201.382 214.95 203.752 214.95C204.902 214.95 205.972 214.58 206.752 213.88L207.532 215.18V215.17Z" fill="black"></path><path d="M229.23 197.07V216.39H227.45V212.24C226.19 214.94 223.56 216.53 220.16 216.53C215.24 216.53 212.09 213.75 212.09 208.35V197.06H213.94V208.2C213.94 212.57 216.27 214.86 220.31 214.86C224.68 214.86 227.38 211.94 227.38 207.35V197.06H229.23V197.07Z" fill="black"></path><path d="M245.839 196.92V198.73C245.689 198.73 245.539 198.69 245.399 198.69C241.109 198.69 238.549 201.54 238.549 206.32V216.39H236.699V197.07H238.479V201.29C239.659 198.48 242.219 196.92 245.849 196.92H245.839Z" fill="black"></path><path d="M264.54 204.14V216.39H262.76V212.95C261.54 215.17 259.17 216.54 255.8 216.54C251.47 216.54 248.84 214.32 248.84 211.02C248.84 208.1 250.69 205.62 256.06 205.62H262.69V204.07C262.69 200.48 260.73 198.55 256.95 198.55C254.29 198.55 251.88 199.55 250.29 200.99L249.36 199.66C251.29 197.96 254.1 196.92 257.1 196.92C261.88 196.92 264.54 199.36 264.54 204.14ZM262.69 210.69V207.06H256.1C252.1 207.06 250.7 208.73 250.7 210.95C250.7 213.47 252.66 215.02 256.07 215.02C259.48 215.02 261.59 213.47 262.7 210.69H262.69Z" fill="black"></path><path d="M271.789 188.92H273.639V216.39H271.789V188.92Z" fill="black"></path><path d="M297.401 207.17H280.781C280.971 211.76 284.331 214.87 288.961 214.87C291.401 214.87 293.661 213.98 295.141 212.17L296.211 213.39C294.511 215.46 291.841 216.54 288.921 216.54C283.071 216.54 278.961 212.47 278.961 206.73C278.961 200.99 282.921 196.92 288.211 196.92C293.501 196.92 297.431 200.92 297.431 206.66C297.431 206.81 297.391 206.99 297.391 207.18L297.401 207.17ZM280.821 205.73H295.631C295.371 201.55 292.341 198.55 288.231 198.55C284.121 198.55 281.121 201.51 280.831 205.73H280.821Z" fill="black"></path><path d="M315.688 214.8V216.39H300.328V215.13L313.058 198.66H300.508V197.07H315.468V198.33L302.698 214.8H315.688Z" fill="black"></path><path d="M334.821 204.14V216.39H333.041V212.95C331.821 215.17 329.451 216.54 326.081 216.54C321.751 216.54 319.121 214.32 319.121 211.02C319.121 208.1 320.971 205.62 326.341 205.62H332.971V204.07C332.971 200.48 331.011 198.55 327.231 198.55C324.571 198.55 322.161 199.55 320.571 200.99L319.641 199.66C321.571 197.96 324.381 196.92 327.381 196.92C332.161 196.92 334.821 199.36 334.821 204.14ZM332.971 210.69V207.06H326.381C322.381 207.06 320.981 208.73 320.981 210.95C320.981 213.47 322.941 215.02 326.351 215.02C329.761 215.02 331.871 213.47 332.981 210.69H332.971Z" fill="black"></path><path d="M367.542 207.17H350.922C351.112 211.76 354.472 214.87 359.102 214.87C361.542 214.87 363.802 213.98 365.282 212.17L366.352 213.39C364.652 215.46 361.982 216.54 359.062 216.54C353.212 216.54 349.102 212.47 349.102 206.73C349.102 200.99 353.062 196.92 358.352 196.92C363.642 196.92 367.572 200.92 367.572 206.66C367.572 206.81 367.532 206.99 367.532 207.18L367.542 207.17ZM350.962 205.73H365.772C365.512 201.55 362.482 198.55 358.372 198.55C354.262 198.55 351.262 201.51 350.972 205.73H350.962Z" fill="black"></path><path d="M370.102 214.06L370.952 212.58C372.432 213.84 375.062 214.91 377.912 214.91C381.982 214.91 383.612 213.47 383.612 211.28C383.612 205.65 370.802 209.8 370.802 202.21C370.802 199.29 373.242 196.92 378.132 196.92C380.572 196.92 383.242 197.66 384.762 198.81L383.912 200.29C382.282 199.11 380.172 198.55 378.102 198.55C374.322 198.55 372.662 200.1 372.662 202.18C372.662 207.99 385.472 203.88 385.472 211.25C385.472 214.4 382.772 216.54 377.842 216.54C374.662 216.54 371.622 215.47 370.102 214.06Z" fill="black"></path><path d="M415.741 207.17H399.121C399.311 211.76 402.671 214.87 407.301 214.87C409.741 214.87 412.001 213.98 413.481 212.17L414.551 213.39C412.851 215.46 410.181 216.54 407.261 216.54C401.411 216.54 397.301 212.47 397.301 206.73C397.301 200.99 401.261 196.92 406.551 196.92C411.841 196.92 415.771 200.92 415.771 206.66C415.771 206.81 415.731 206.99 415.731 207.18L415.741 207.17ZM399.151 205.73H413.961C413.701 201.55 410.671 198.55 406.561 198.55C402.451 198.55 399.451 201.51 399.161 205.73H399.151Z" fill="black"></path><path d="M436.279 197.07L427.539 216.39H425.649L416.949 197.07H418.909L426.609 214.36L434.379 197.07H436.269H436.279Z" fill="black"></path><path d="M437.27 206.73C437.27 200.99 441.38 196.92 446.93 196.92C452.48 196.92 456.59 200.99 456.59 206.73C456.59 212.47 452.48 216.54 446.93 216.54C441.38 216.54 437.27 212.47 437.27 206.73ZM454.71 206.73C454.71 201.88 451.38 198.59 446.94 198.59C442.5 198.59 439.17 201.88 439.17 206.73C439.17 211.58 442.5 214.87 446.94 214.87C451.38 214.87 454.71 211.58 454.71 206.73Z" fill="black"></path><path d="M461.961 188.92H463.811V216.39H461.961V188.92Z" fill="black"></path><path d="M488.171 197.07V216.39H486.391V212.24C485.131 214.94 482.501 216.53 479.101 216.53C474.181 216.53 471.031 213.75 471.031 208.35V197.06H472.881V208.2C472.881 212.57 475.211 214.86 479.251 214.86C483.621 214.86 486.321 211.94 486.321 207.35V197.06H488.171V197.07Z" fill="black"></path><path d="M493.539 206.73C493.539 200.95 497.649 196.92 503.309 196.92C506.379 196.92 509.049 198.1 510.639 200.47L509.269 201.47C507.859 199.51 505.719 198.58 503.309 198.58C498.759 198.58 495.419 201.84 495.419 206.72C495.419 211.6 498.749 214.86 503.309 214.86C505.719 214.86 507.859 213.93 509.269 211.97L510.639 212.97C509.049 215.3 506.379 216.52 503.309 216.52C497.649 216.52 493.539 212.45 493.539 206.71V206.73Z" fill="black"></path><path d="M515.23 190.88C515.23 190.07 515.9 189.36 516.75 189.36C517.6 189.36 518.271 190.03 518.271 190.84C518.271 191.65 517.6 192.36 516.75 192.36C515.9 192.36 515.23 191.69 515.23 190.88ZM515.82 197.07H517.67V216.39H515.82V197.07Z" fill="black"></path><path d="M523 206.73C523 200.99 527.11 196.92 532.66 196.92C538.21 196.92 542.32 200.99 542.32 206.73C542.32 212.47 538.21 216.54 532.66 216.54C527.11 216.54 523 212.47 523 206.73ZM540.43 206.73C540.43 201.88 537.1 198.59 532.66 198.59C528.22 198.59 524.89 201.88 524.89 206.73C524.89 211.58 528.22 214.87 532.66 214.87C537.1 214.87 540.43 211.58 540.43 206.73Z" fill="black"></path><path d="M564.97 205.1V216.39H563.12V205.25C563.12 200.88 560.79 198.59 556.86 198.59C552.31 198.59 549.53 201.51 549.53 206.1V216.39H547.68V197.07H549.46V201.25C550.76 198.55 553.46 196.92 557.12 196.92C561.82 196.92 564.97 199.7 564.97 205.1Z" fill="black"></path><path d="M586.18 204.14V216.39H584.401V212.95C583.181 215.17 580.81 216.54 577.44 216.54C573.11 216.54 570.48 214.32 570.48 211.02C570.48 208.1 572.331 205.62 577.701 205.62H584.331V204.07C584.331 200.48 582.371 198.55 578.591 198.55C575.931 198.55 573.52 199.55 571.93 200.99L571 199.66C572.93 197.96 575.74 196.92 578.74 196.92C583.52 196.92 586.18 199.36 586.18 204.14ZM584.331 210.69V207.06H577.74C573.74 207.06 572.341 208.73 572.341 210.95C572.341 213.47 574.301 215.02 577.711 215.02C581.121 215.02 583.231 213.47 584.341 210.69H584.331Z" fill="black"></path><path d="M602.581 196.92V198.73C602.431 198.73 602.281 198.69 602.141 198.69C597.851 198.69 595.291 201.54 595.291 206.32V216.39H593.441V197.07H595.221V201.29C596.401 198.48 598.961 196.92 602.591 196.92H602.581Z" fill="black"></path></g><defs><clipPath id="clip0_250_607"><rect width="602.58" height="216.54" fill="white"></rect></clipPath></defs></svg>